# xmcd
#
# Track frame offsets:
#	150
#	18290
#	34137
#	47172
#	57010
#	77760
#	98595
#	112812
#	135260
#	149957
#	169780
#	186877
#	205262
#	224470
#	240962
#
# Disc length: 3380 seconds
#
# Revision: 1
# Processed by: cddbd v1.5.1PL2 Copyright (c) Steve Scherf et al.
# Submitted via: audiograbber 1.83.01
#
DISCID=c80d320f
DTITLE=Garth Brooks - Druid-2013
DYEAR=1900
DGENRE=Karaoke
TTITLE0=Garth Brooks - Red Strokes
TTITLE1=Garth Brooks - Mr Blue
TTITLE2=Garth Brooks - Walkin' After Midnight
TTITLE3=Garth Brooks - Mr Right
TTITLE4=Garth Brooks - Lonesome Dove
TTITLE5=Garth Brooks - Wolves
TTITLE6=Garth Brooks - Same Ole Story
TTITLE7=Garth Brooks - That Summer
TTITLE8=Garth Brooks - We Bury The Hatchet
TTITLE9=Garth Brooks - Dixie Chicken
TTITLE10=Garth Brooks - We Shall Be Free
TTITLE11=Garth Brooks - Standing Outside The Fire
TTITLE12=Garth Brooks - Shameless
TTITLE13=Garth Brooks - Every Now And Then
TTITLE14=Garth Brooks - Callin' Baton Rouge
EXTD=
EXTT0=
EXTT1=
EXTT2=
EXTT3=
EXTT4=
EXTT5=
EXTT6=
EXTT7=
EXTT8=
EXTT9=
EXTT10=
EXTT11=
EXTT12=
EXTT13=
EXTT14=
PLAYORDER=
